<svg height="17.041" viewBox="0 0 15.899 17.041" width="15.899" xmlns="http://www.w3.org/2000/svg">
    <path
        d="M112.591,100.216a1.845,1.845,0,0,0-.87-.8h0l-5.8-2.9-.29.653.29-.653a2.151,2.151,0,0,0-1.885,0h0l-5.8,2.9h0a1.845,1.845,0,0,0-.87.8,2.191,2.191,0,0,0-.363,1.16v6.889a2.128,2.128,0,0,0,.29,1.16,1.845,1.845,0,0,0,.87.8h0l5.8,2.9a2.233,2.233,0,0,0,.943.218,2.007,2.007,0,0,0,.943-.218l5.8-2.9h0a1.845,1.845,0,0,0,.87-.8,2.191,2.191,0,0,0,.363-1.16v-6.889A1.563,1.563,0,0,0,112.591,100.216Zm-7.9-2.465a.436.436,0,0,1,.29-.073c.145,0,.218,0,.29.073h0l5.294,2.683-5.656,2.828-5.656-2.828Zm-5.874,11.167a.566.566,0,0,1-.29-.29.654.654,0,0,1-.073-.363v-6.6l5.8,2.9v7.106Zm12.545-.29a.566.566,0,0,1-.29.29h0L105.7,111.6v-7.106l5.8-2.9v6.671C111.5,108.41,111.43,108.482,111.358,108.627Z"
        fill="#fedd2d" transform="translate(-97 -96.3)" />
</svg>