<svg height="25.89" viewBox="0 0 14.642 25.89" width="14.642" xmlns="http://www.w3.org/2000/svg">
    <path
        d="M14.2,14.363c-3.265-.849-4.315-1.726-4.315-3.092,0-1.568,1.453-2.661,3.884-2.661,2.56,0,3.51,1.223,3.6,3.021h3.179a5.734,5.734,0,0,0-4.617-5.48V3H11.613V6.107c-2.79.6-5.034,2.416-5.034,5.192,0,3.323,2.747,4.977,6.76,5.94,3.6.863,4.315,2.129,4.315,3.466,0,.992-.7,2.575-3.884,2.575-2.963,0-4.128-1.323-4.286-3.021H6.32c.173,3.15,2.531,4.919,5.293,5.509V28.89h4.315V25.8c2.8-.532,5.034-2.158,5.034-5.106C20.962,16.607,17.467,15.212,14.2,14.363Z"
        fill="#827eab" transform="translate(-6.32 -3)" />
</svg>