<svg height="24" viewBox="0 0 24 24" width="24" xmlns="http://www.w3.org/2000/svg">
    <g transform="translate(3 1)">
        <path
            d="M3.437,22A3.441,3.441,0,0,1,0,18.563V3.437A3.441,3.441,0,0,1,3.437,0H14A3.441,3.441,0,0,1,17.44,3.437V14.266a.859.859,0,1,1-1.718,0V3.437A1.72,1.72,0,0,0,14,1.719H3.437A1.72,1.72,0,0,0,1.719,3.437V18.563a1.72,1.72,0,0,0,1.718,1.719H14a1.721,1.721,0,0,0,1.719-1.719.859.859,0,1,1,1.718,0A3.441,3.441,0,0,1,14,22ZM6.362,14.47,3.617,11.835a.86.86,0,0,1,1.191-1.24L7.55,13.228a.483.483,0,0,0,.368.131.488.488,0,0,0,.338-.168l4.236-5.917a.86.86,0,1,1,1.4,1L9.637,14.216l-.029.038a2.217,2.217,0,0,1-1.576.821c-.049,0-.1,0-.146,0A2.217,2.217,0,0,1,6.362,14.47Z"
            fill="#fff" transform="translate(0)" />
    </g>
    <rect fill="none" height="24" width="24" />
</svg>