<svg height="40" viewBox="0 0 40 40" width="40" xmlns="http://www.w3.org/2000/svg">
    <rect fill="#eaecef" height="40" rx="10" width="40" />
    <g transform="translate(9.091 8.091)">
        <g transform="translate(0.909 0.909)">
            <path
                d="M19.219,13.75A.781.781,0,0,0,20,12.969V3.125A3.128,3.128,0,0,0,16.875,0H3.125A3.128,3.128,0,0,0,0,3.125v13.75A3.128,3.128,0,0,0,3.125,20h13.75A3.128,3.128,0,0,0,20,16.875a.781.781,0,0,0-1.562,0,1.564,1.564,0,0,1-1.562,1.563H13.047v-5.7h1.808a.781.781,0,0,0,.776-.688l.1-.859a.781.781,0,0,0-.776-.875H13.047V7.7a1.172,1.172,0,0,1,1.172-1.172H15.2a.781.781,0,0,0,.781-.781v-.79a.781.781,0,0,0-.7-.777c-.4-.04-.815-.073-1.057-.073a3.617,3.617,0,0,0-2.505,1.054A3.557,3.557,0,0,0,10.625,7.7v2.61H8.867a.781.781,0,0,0-.781.781v.859a.781.781,0,0,0,.781.781h1.758v5.7h-7.5a1.564,1.564,0,0,1-1.562-1.562V3.125A1.564,1.564,0,0,1,3.125,1.563h13.75a1.564,1.564,0,0,1,1.563,1.563v9.844A.781.781,0,0,0,19.219,13.75Z"
                fill="#839ec1" />
        </g>
        <rect fill="none" height="21.818" width="21.818" />
    </g>
</svg>