<svg height="27.783" viewBox="0 0 25 27.783" width="25" xmlns="http://www.w3.org/2000/svg">
    <path
        d="M23.575,5.431a.645.645,0,0,1-.32-.083,15.9,15.9,0,0,0-7.738-1.959A15.893,15.893,0,0,0,7.78,5.348a.7.7,0,1,1-.667-1.222,17.675,17.675,0,0,1,16.781-.014.7.7,0,0,1-.32,1.32ZM3.7,12.724a.724.724,0,0,1-.4-.125.693.693,0,0,1-.167-.972A14.363,14.363,0,0,1,8.336,7.084,16.036,16.036,0,0,1,22.658,7.07a14.417,14.417,0,0,1,5.209,4.515.7.7,0,0,1-1.139.806,13.041,13.041,0,0,0-4.709-4.084,14.638,14.638,0,0,0-13.058.014,13.179,13.179,0,0,0-4.723,4.112.606.606,0,0,1-.542.292Zm8.682,16.767a.652.652,0,0,1-.486-.208A14.043,14.043,0,0,1,9.1,25.616a12.332,12.332,0,0,1-1.459-6.029A7.693,7.693,0,0,1,15.5,12.1a7.693,7.693,0,0,1,7.863,7.488.695.695,0,1,1-1.389,0,6.3,6.3,0,0,0-6.474-6.1,6.3,6.3,0,0,0-6.474,6.1,10.883,10.883,0,0,0,1.292,5.348,13.149,13.149,0,0,0,2.57,3.362.713.713,0,0,1,0,.986.762.762,0,0,1-.514.208Zm9.96-2.57a7.481,7.481,0,0,1-4.306-1.236,7.4,7.4,0,0,1-3.306-6.1.695.695,0,0,1,1.389,0,5.975,5.975,0,0,0,2.695,4.945,6.091,6.091,0,0,0,3.528.986,9.181,9.181,0,0,0,1.445-.139.7.7,0,0,1,.236,1.375,9.486,9.486,0,0,1-1.681.167Zm-2.792,2.862a.813.813,0,0,1-.181-.028A10.839,10.839,0,0,1,14.2,26.838a10.136,10.136,0,0,1-3.015-7.251A4.189,4.189,0,0,1,15.462,15.5a4.189,4.189,0,0,1,4.279,4.084,2.9,2.9,0,0,0,5.779,0C25.52,14.35,21,10.1,15.448,10.1a10.142,10.142,0,0,0-9.182,5.6,8.937,8.937,0,0,0-.82,3.89A13.8,13.8,0,0,0,6.377,24.6a.678.678,0,0,1-.4.889.689.689,0,0,1-.889-.4,15.476,15.476,0,0,1-1.014-5.5,10.437,10.437,0,0,1,.945-4.5A11.529,11.529,0,0,1,15.448,8.7c6.321,0,11.461,4.876,11.461,10.877a4.283,4.283,0,0,1-8.557,0,2.8,2.8,0,0,0-2.889-2.695,2.8,2.8,0,0,0-2.889,2.695,8.748,8.748,0,0,0,2.6,6.265,9.446,9.446,0,0,0,4.543,2.57.689.689,0,0,1,.486.847.678.678,0,0,1-.653.528Z"
        fill="#827eab" transform="translate(-2.997 -2)" />
</svg>