<svg height="17.1" viewBox="0 0 18 17.1" width="18" xmlns="http://www.w3.org/2000/svg">
    <path
        d="M18.2,5.6H16.238A2.694,2.694,0,0,0,11.45,3.215l-.45.6-.45-.612A2.694,2.694,0,0,0,5.762,5.6H3.8A1.786,1.786,0,0,0,2.009,7.4L2,17.3a1.794,1.794,0,0,0,1.8,1.8H18.2A1.794,1.794,0,0,0,20,17.3V7.4A1.794,1.794,0,0,0,18.2,5.6ZM13.7,3.8a.9.9,0,1,1-.9.9A.9.9,0,0,1,13.7,3.8Zm-5.4,0a.9.9,0,1,1-.9.9A.9.9,0,0,1,8.3,3.8Zm9.9,13.5H3.8V15.5H18.2Zm0-4.5H3.8V7.4H8.372L6.5,9.947,7.958,11,10.1,8.084,11,6.86l.9,1.224L14.042,11,15.5,9.947,13.628,7.4H18.2Z"
        fill="#827eab" transform="translate(-2 -2)" />
</svg>