<svg height="40" viewBox="0 0 40 40" width="40" xmlns="http://www.w3.org/2000/svg">
    <rect fill="#eaecef" height="40" rx="10" width="40" />
    <g transform="translate(9.091 8.091)">
        <g transform="translate(0.909 0.909)">
            <path
                d="M5.573,19.878a5.915,5.915,0,0,1-3.409-1.29A5.475,5.475,0,0,1,.324,15.618a13.163,13.163,0,0,1-.3-3.141C.012,11.747,0,10.882,0,10S.012,8.253.023,7.523a13.166,13.166,0,0,1,.3-3.142A5.476,5.476,0,0,1,2.163,1.413,5.916,5.916,0,0,1,5.573.122C6.982.037,8.431,0,10,0s3.017.037,4.425.122a5.911,5.911,0,0,1,3.409,1.291,5.471,5.471,0,0,1,1.839,2.968,13.168,13.168,0,0,1,.3,3.142c.01.73.02,1.6.023,2.475s-.013,1.748-.023,2.479a.781.781,0,0,1-1.563-.022c.01-.726.02-1.585.023-2.457s-.013-1.728-.023-2.454a11.965,11.965,0,0,0-.253-2.777,3.947,3.947,0,0,0-1.312-2.144,4.3,4.3,0,0,0-2.518-.943C12.956,1.6,11.54,1.56,10,1.563s-2.959.035-4.334.119a4.309,4.309,0,0,0-2.517.942A3.945,3.945,0,0,0,1.838,4.768a12.011,12.011,0,0,0-.254,2.777c-.01.726-.02,1.586-.022,2.457s.012,1.728.022,2.454a12.006,12.006,0,0,0,.254,2.777,3.945,3.945,0,0,0,1.312,2.144,4.309,4.309,0,0,0,2.517.942c1.375.083,2.792.123,4.331.119s2.958-.035,4.333-.119a4.31,4.31,0,0,0,2.518-.942,3.763,3.763,0,0,0,1.072-1.437.781.781,0,0,1,1.434.621,5.3,5.3,0,0,1-1.519,2.027,5.911,5.911,0,0,1-3.409,1.29c-1.349.083-2.734.122-4.229.122H9.781C8.3,20,6.916,19.96,5.573,19.878ZM5.078,10a4.883,4.883,0,1,1,4.883,4.883A4.888,4.888,0,0,1,5.078,10Zm9.141-5.273A1.172,1.172,0,1,1,15.39,5.9,1.172,1.172,0,0,1,14.218,4.727Z"
                fill="#839ec1" transform="translate(0 0)" />
        </g>
        <rect fill="none" height="21.818" width="21.818" />
    </g>
</svg>