<svg height="40" viewBox="0 0 40 40" width="40" xmlns="http://www.w3.org/2000/svg">
    <g transform="translate(-95 -15)">
        <g transform="translate(95 15)">
            <path
                d="M10,0H30A10,10,0,0,1,40,10V30A10,10,0,0,1,30,40H10A10,10,0,0,1,0,30V10A10,10,0,0,1,10,0Z"
                fill="#eaecef" />
        </g>
        <path
            d="M5,3A2,2,0,0,0,3,5V19a2,2,0,0,0,2,2H19a2,2,0,0,0,2-2V5a2,2,0,0,0-2-2ZM5,5H19V19H5ZM7.779,6.316a1.223,1.223,0,0,0-1.371,1.2,1.194,1.194,0,0,0,1.285,1.2,1.222,1.222,0,0,0,1.371-1.2A1.2,1.2,0,0,0,7.779,6.316ZM6.477,10v7H9V10Zm4.605,0v7h2.524V13.174c0-1.139.813-1.3,1.057-1.3s.9.245.9,1.3V17H18V13.174c0-2.2-.976-3.174-2.2-3.174a2.282,2.282,0,0,0-2.2.977V10Z"
            fill="#839ec1" transform="translate(104 22.5)" />
    </g>
</svg>