<svg height="25.516" viewBox="0 0 25.471 25.516" width="25.471" xmlns="http://www.w3.org/2000/svg">
    <path
        d="M24.006,25.345l-3.722-2.952H9.622A3.508,3.508,0,0,1,6.28,19.056v-.782a.941.941,0,0,1,.916-.82.924.924,0,0,1,.9.82v.782a1.563,1.563,0,0,0,1.563,1.562H20.593a.788.788,0,0,1,.487.171L23.718,22.9V9.681a1.565,1.565,0,0,0-1.563-1.563c-.432,0-.775-.508-.775-.94a.78.78,0,0,1,.775-.786,3.256,3.256,0,0,1,3.315,3.289l0,15.054a.78.78,0,0,1-.442.7,1.847,1.847,0,0,1-.53.078A.792.792,0,0,1,24.006,25.345ZM.462,19.812c-.039-.02-.072-.037-.1-.048A.613.613,0,0,1,0,19.125V3.5A3.7,3.7,0,0,1,.824,1.1,3.257,3.257,0,0,1,3.405,0H17.468A3.1,3.1,0,0,1,20,1.07a3.717,3.717,0,0,1,.757,2.361v9.375a3.2,3.2,0,0,1-3.311,3.354H6.181L1.7,19.764a2.016,2.016,0,0,1-.836.208A1.369,1.369,0,0,1,.462,19.812ZM1.843,3.431V17.389l3.406-2.84a.781.781,0,0,1,.5-.181H17.468a1.564,1.564,0,0,0,1.563-1.563V3.431a1.564,1.564,0,0,0-1.563-1.563H3.405A1.564,1.564,0,0,0,1.843,3.431ZM5.749,9.681a.781.781,0,0,1,0-1.563H12a.781.781,0,0,1,0,1.563Zm0-3.125a.781.781,0,0,1,0-1.562h9.376a.781.781,0,1,1,0,1.562Z"
        fill="#dc8282" />
</svg>