<svg height="17.5" viewBox="0 0 25 17.5" width="25" xmlns="http://www.w3.org/2000/svg">
    <path
        d="M20.125,13.75A3.125,3.125,0,1,0,17,10.625,3.115,3.115,0,0,0,20.125,13.75ZM10.75,12.5A3.75,3.75,0,1,0,7,8.75,3.734,3.734,0,0,0,10.75,12.5Zm9.375,3.75c-2.288,0-6.875,1.15-6.875,3.438V22.5H27V19.688C27,17.4,22.413,16.25,20.125,16.25ZM10.75,15C7.837,15,2,16.462,2,19.375V22.5h8.75V19.688c0-1.062.413-2.925,2.962-4.337A15.354,15.354,0,0,0,10.75,15Z"
        fill="#827eab" transform="translate(-2 -5)" />
</svg>