<svg height="40" viewBox="0 0 40 40" width="40" xmlns="http://www.w3.org/2000/svg">
    <rect fill="#eaecef" height="40" rx="10" width="40" />
    <g transform="translate(7 10.5)">
        <path
            d="M473.077,320.713l-7.665-4.842a.824.824,0,0,1,.206-1.486l18.116-5.353a.836.836,0,0,1,.139-.028h.017a.833.833,0,0,1,.134,0l.023,0,.02,0c.037.005.074.012.11.021l.011,0,.013,0,.013.005.011,0a.862.862,0,0,1,.1.041l.008,0a.283.283,0,0,1,.037.018.857.857,0,0,1,.095.063l.014.009.016.012a.877.877,0,0,1,.1.1l.015.022.01.014.008.011a.63.63,0,0,1,.044.062.013.013,0,0,1,0,.005s0,0,0,0a.856.856,0,0,1,.086.224c0,.014.006.029.009.044a.808.808,0,0,1,.009.233c0,.007,0,.013,0,.02s0,.011,0,.016l0,.021a.685.685,0,0,1-.017.086L479.4,328.172a.824.824,0,0,1-.676.582.811.811,0,0,1-.113.008.824.824,0,0,1-.7-.384ZM477.621,315l3.475-3.476-13.267,3.921,5.729,3.618,1.593-1.592a.823.823,0,0,1,1.165,1.164l-1.593,1.594,3.619,5.729,3.92-13.268-3.475,3.476A.823.823,0,0,1,477.621,315Z"
            fill="#839ec1" fill-rule="evenodd" transform="translate(-464.028 -308)" />
        <rect fill="none" height="21.82" width="21.82" />
    </g>
</svg>