<svg height="40" viewBox="0 0 40 40" width="40" xmlns="http://www.w3.org/2000/svg">
    <path
        d="M10,0H30A10,10,0,0,1,40,10V30A10,10,0,0,1,30,40H10A10,10,0,0,1,0,30V10A10,10,0,0,1,10,0Z"
        fill="#eaecef" />
    <g transform="translate(10.091 9.091)">
        <g transform="translate(0.909 2.727)">
            <path
                d="M17.627,2.617l-.01-.038a4.232,4.232,0,0,0,1.836-2.3A8.533,8.533,0,0,1,16.8,1.289,3.944,3.944,0,0,0,13.867,0,4.134,4.134,0,0,0,9.727,4.1a7.673,7.673,0,0,0,.067.979A11.69,11.69,0,0,1,4.212,3.151,10.787,10.787,0,0,1,1.9,1.157a.781.781,0,0,0-1.386.6,12.222,12.222,0,0,0,1.842,4.6,2.07,2.07,0,0,1-.575-.165.765.765,0,0,0-.875.067.786.786,0,0,0-.245.861,5.7,5.7,0,0,0,3.222,3.159,4,4,0,0,1-1.018.152H2.852a.781.781,0,0,0-.478,1.4,8.413,8.413,0,0,0,3,1.328,5.537,5.537,0,0,1-2.25.63,7.7,7.7,0,0,1-2.158-.133.781.781,0,0,0-.487,1.48,16.182,16.182,0,0,0,5.457,1.154,15.247,15.247,0,0,0,4.492-.546A9.408,9.408,0,0,0,14.5,13.284a.781.781,0,1,0-1.111-1.1C11.3,14.294,8.9,14.727,5.938,14.727l-.208,0a5.84,5.84,0,0,0,2.1-1.611.781.781,0,0,0-.581-1.276,7.578,7.578,0,0,1-2.13-.374,3.431,3.431,0,0,0,1.208-.993.781.781,0,0,0-.487-1.238A5.359,5.359,0,0,1,3.094,7.948a5.465,5.465,0,0,0,1.041-.158.781.781,0,0,0,.353-1.32A7.716,7.716,0,0,1,2.9,4.143q.193.138.4.277A13.432,13.432,0,0,0,10.742,6.68a.782.782,0,0,0,.754-.986A6.986,6.986,0,0,1,11.289,4.1a2.5,2.5,0,0,1,.756-1.789,2.58,2.58,0,0,1,1.822-.75,2.381,2.381,0,0,1,1.79.8,3.1,3.1,0,0,1,.749,1.778v.473a.46.46,0,0,0,.006.065.812.812,0,0,0-.006.091,10.734,10.734,0,0,1-.977,4.7.781.781,0,1,0,1.407.68,12.277,12.277,0,0,0,1.133-5.379.8.8,0,0,0-.005-.088.521.521,0,0,0,.005-.068V4.063A8.488,8.488,0,0,0,20,1.875a8.646,8.646,0,0,1-2.373.742Z"
                fill="#839ec1" transform="translate(0)" />
        </g>
        <rect fill="none" height="21.818" width="21.818" />
    </g>
</svg>