<svg height="24" viewBox="0 0 24 24" width="24" xmlns="http://www.w3.org/2000/svg">
    <g transform="translate(-318 -274)">
        <g fill="#eaecef" transform="translate(318 274)">
            <path
                d="M 12 23.5 C 8.928239822387695 23.5 6.040329933166504 22.30378913879395 3.868269920349121 20.13172912597656 C 1.696210026741028 17.95966911315918 0.5 15.0717601776123 0.5 12 C 0.5 8.928239822387695 1.696210026741028 6.040329933166504 3.868269920349121 3.868269920349121 C 6.040329933166504 1.696210026741028 8.928239822387695 0.5 12 0.5 C 15.0717601776123 0.5 17.95966911315918 1.696210026741028 20.13172912597656 3.868269920349121 C 22.30378913879395 6.040329933166504 23.5 8.928239822387695 23.5 12 C 23.5 15.0717601776123 22.30378913879395 17.95966911315918 20.13172912597656 20.13172912597656 C 17.95966911315918 22.30378913879395 15.0717601776123 23.5 12 23.5 Z"
                stroke="none" />
            <path
                d="M 12 1 C 9.061790466308594 1 6.299449920654297 2.144199371337891 4.221820831298828 4.221820831298828 C 2.144199371337891 6.299449920654297 1 9.061790466308594 1 12 C 1 14.93820953369141 2.144199371337891 17.7005500793457 4.221820831298828 19.77817916870117 C 6.299449920654297 21.85580062866211 9.061790466308594 23 12 23 C 14.93820953369141 23 17.7005500793457 21.85580062866211 19.77817916870117 19.77817916870117 C 21.85580062866211 17.7005500793457 23 14.93820953369141 23 12 C 23 9.061790466308594 21.85580062866211 6.299449920654297 19.77817916870117 4.221820831298828 C 17.7005500793457 2.144199371337891 14.93820953369141 1 12 1 M 12 0 C 18.62742042541504 0 24 5.372579574584961 24 12 C 24 18.62742042541504 18.62742042541504 24 12 24 C 5.372579574584961 24 0 18.62742042541504 0 12 C 0 5.372579574584961 5.372579574584961 0 12 0 Z"
                fill="#eaecef" stroke="none" />
        </g>
        <path
            d="M12.874,5.025l-.6.6a2.755,2.755,0,0,1,0,3.9l.6.6a3.457,3.457,0,0,0,0-5.106ZM11.612,6.287l-.6.6a1.172,1.172,0,0,1,0,1.382l.6.6A1.813,1.813,0,0,0,11.612,6.287ZM9.209,1H3.2A1.205,1.205,0,0,0,2,2.2V13.015a1.205,1.205,0,0,0,1.2,1.2H9.209a1.205,1.205,0,0,0,1.2-1.2V2.2A1.205,1.205,0,0,0,9.209,1Zm0,11.414H3.2V2.8H9.209Z"
            fill="#839ec1" transform="translate(323 278)" />
    </g>
</svg>