<svg height="40" viewBox="0 0 40 40" width="40" xmlns="http://www.w3.org/2000/svg">
    <rect fill="#eaecef" height="40" rx="10" width="40" />
    <g transform="translate(10.091 8.591)">
        <g transform="translate(0.909 0.909)">
            <path
                d="M10,19.842A10.02,10.02,0,0,1,5.5,18.774l-4.274.972a.782.782,0,0,1-.936-.929l.926-4.21A9.871,9.871,0,0,1,0,9.933V9.916A9.809,9.809,0,0,1,2.944,2.9a10.006,10.006,0,0,1,14.1,0A9.806,9.806,0,0,1,18.28,15.47a.781.781,0,0,1-1.289-.883A8.242,8.242,0,0,0,15.942,4.014,8.435,8.435,0,0,0,1.563,9.9v.015A8.351,8.351,0,0,0,2.72,14.092a.784.784,0,0,1,.088.56l-.726,3.3,3.354-.763a.777.777,0,0,1,.546.075A8.439,8.439,0,0,0,10,18.279h0a8.446,8.446,0,0,0,4.327-1.191.781.781,0,0,1,.8,1.343A10.02,10.02,0,0,1,10,19.842Zm.276-6.309a9.383,9.383,0,0,1-3.908-3.441,4.425,4.425,0,0,1-.934-2.358,2.554,2.554,0,0,1,.8-1.9.84.84,0,0,1,.61-.285h.439c.163.007.344.019.515.4.2.451.642,1.578.7,1.693a.418.418,0,0,1,.02.4,1.533,1.533,0,0,1-.223.38c-.115.133-.254.273-.356.375s-.234.237-.1.466a7.012,7.012,0,0,0,1.285,1.6A6.322,6.322,0,0,0,10.95,12c.229.114.362.095.5-.057s.583-.679.735-.907.305-.191.515-.115,1.331.637,1.56.751.381.171.438.266a1.9,1.9,0,0,1-.133,1.084A2.309,2.309,0,0,1,13.016,14.1a4.368,4.368,0,0,1-.467.038A6.55,6.55,0,0,1,10.271,13.533Z"
                fill="#839ec1" transform="translate(0 0)" />
        </g>
        <rect fill="none" height="21.818" width="21.818" />
    </g>
</svg>