<svg data-name="Icons / dashboard" height="24" id="Icons_dashboard" viewBox="0 0 24 24" width="24"
    xmlns="http://www.w3.org/2000/svg">
    <g data-name="Group 6" id="Group_6" transform="translate(4289 -7362.02)">
        <path
            d="M111.206,1045.51a.942.942,0,0,1,1.3,1.31c-.956,1.4-5.764,8.44-6.52,9.19a2.814,2.814,0,0,1-3.978-3.98C102.767,1051.28,109.8,1046.47,111.206,1045.51Zm-7.869,9.18a.949.949,0,0,0,1.326,0c.29-.3,1.715-2.29,3.423-4.75-2.458,1.71-4.455,3.13-4.749,3.42A.945.945,0,0,0,103.337,1054.69Z"
            data-name="Path 238" fill="#b0b3c7" fill-rule="evenodd" id="Path_238"
            transform="translate(-4381 6322)" />
        <path
            d="M96.323,1058.38l-1.157.57a10.078,10.078,0,0,1-.632-8.52l1.326.63a.851.851,0,0,0,.4.1.941.941,0,0,0,.406-1.79l-1.309-.62a10.126,10.126,0,0,1,7.7-4.81v1.41a.938.938,0,1,0,1.875,0v-1.41a10.051,10.051,0,0,1,3.223.85.938.938,0,0,0,.772-1.71,11.993,11.993,0,0,0-14.9,17.61.951.951,0,0,0,.78.41.992.992,0,0,0,.41-.09l1.922-.94a.94.94,0,0,0-.822-1.69Z"
            data-name="Path 239" fill="#b0b3c7" id="Path_239" transform="translate(-4381 6322)" />
        <path
            d="M114.942,1049.09a.937.937,0,1,0-1.709.77,10.1,10.1,0,0,1-.4,9.1l-1.208-.58a.936.936,0,1,0-.806,1.69l1.968.94a.961.961,0,0,0,.4.09.95.95,0,0,0,.78-.41,11.982,11.982,0,0,0,.975-11.6Z"
            data-name="Path 240" fill="#b0b3c7" id="Path_240" transform="translate(-4381 6322)" />
    </g>
    <rect data-name="Rectangle 11" fill="none" height="24" id="Rectangle_11" width="24" />
</svg>
