<svg height="40" viewBox="0 0 40 40" width="40" xmlns="http://www.w3.org/2000/svg">
    <g transform="translate(-24 -56)">
        <g transform="translate(24 56)">
            <rect fill="#fff" height="40" rx="10" width="40" />
        </g>
        <g transform="translate(32 64)">
            <g transform="translate(9)">
                <path d="M0,3A3,3,0,1,1,3,6,3,3,0,0,1,0,3Z" fill="#2c5981"
                    transform="translate(0 9)" />
                <path d="M0,3A3,3,0,1,1,3,6,3,3,0,0,1,0,3Z" fill="#2c5981"
                    transform="translate(0 18)" />
                <path d="M0,3A3,3,0,1,1,3,6,3,3,0,0,1,0,3Z" fill="#2c5981" />
            </g>
            <rect fill="none" height="24" width="24" />
        </g>
    </g>
</svg>