<svg height="30" viewBox="0 0 30 30" width="30" xmlns="http://www.w3.org/2000/svg">
    <path
        d="M476.409,325.561l-10.838-6.846a1.165,1.165,0,0,1,.292-2.1l25.616-7.568a1.178,1.178,0,0,1,.2-.039h.024a1.178,1.178,0,0,1,.19,0,.255.255,0,0,1,.033,0l.028,0c.052.008.1.017.155.029a.072.072,0,0,0,.015,0l.018,0,.019.008.015.006a1.21,1.21,0,0,1,.14.059l.011.005a.392.392,0,0,1,.052.026,1.207,1.207,0,0,1,.134.089l.019.013.023.017a1.239,1.239,0,0,1,.148.148c.008.01.015.02.022.031l.014.019.011.015a.9.9,0,0,1,.062.088.018.018,0,0,1,0,.008s0,.005,0,.006a1.214,1.214,0,0,1,.122.317c.005.02.009.041.013.062a1.145,1.145,0,0,1,.013.33c0,.01,0,.019-.005.028s0,.015-.005.023l0,.029a.976.976,0,0,1-.024.121l-7.568,25.615a1.165,1.165,0,0,1-.956.823,1.149,1.149,0,0,1-.16.011,1.166,1.166,0,0,1-.984-.542Zm6.425-8.071,4.913-4.914-18.759,5.543,8.1,5.115,2.253-2.251a1.164,1.164,0,1,1,1.647,1.645l-2.253,2.254,5.117,8.1,5.542-18.76-4.913,4.914a1.164,1.164,0,0,1-1.647-1.647Z"
        fill="#61bef6" fill-rule="evenodd" transform="translate(-464.028 -308)" />
    <rect fill="none" height="30" width="30" />
</svg>