<svg height="40" viewBox="0 0 40 40" width="40" xmlns="http://www.w3.org/2000/svg">
    <rect fill="#fff" height="40" rx="10" width="40" />
    <g transform="translate(10 10)">
        <g transform="translate(0.833 0.833)">
            <path
                d="M601.084,813.767a9.326,9.326,0,0,1,1.078.432.716.716,0,1,1-.615,1.293,7.807,7.807,0,0,0-3.188-.757c-.063,0-.128,0-.192,0s-.127,0-.19,0A7.914,7.914,0,0,0,590.448,821a.75.75,0,0,0,.152.627.73.73,0,0,0,.573.273h8.819a.716.716,0,1,1,0,1.432h-8.819a2.175,2.175,0,0,1-2.127-2.624,9.313,9.313,0,0,1,6.207-6.939,4.87,4.87,0,1,1,5.831,0Zm-2.917-.465h.175a3.43,3.43,0,1,0-.348,0C598.051,813.3,598.109,813.3,598.167,813.3Z"
                fill="#2c5981" fill-rule="evenodd" transform="translate(-589 -805)" />
            <path
                d="M608.923,821.522h-1.97v-1.97a.716.716,0,0,0-1.432,0v1.97h-1.97a.716.716,0,1,0,0,1.432h1.97v1.97a.716.716,0,0,0,1.432,0v-1.97h1.97a.716.716,0,1,0,0-1.432Z"
                fill="#2c5981" transform="translate(-591.306 -807.306)" />
        </g>
        <rect fill="none" height="20" width="20" />
    </g>
</svg>