<svg height="24" viewBox="0 0 24 24" width="24" xmlns="http://www.w3.org/2000/svg">
    <g transform="translate(1 1)">
        <circle cx="0.859" cy="0.859" fill="#827eab" r="0.859"
            transform="translate(10.141 4.598)" />
        <path
            d="M18.778,3.222A11,11,0,0,0,3.222,18.778a11,11,0,0,0,13.47,1.637.859.859,0,0,0-.89-1.47,9.364,9.364,0,1,1,2.906-2.793.859.859,0,0,0,1.429.955A10.973,10.973,0,0,0,18.778,3.222Z"
            fill="#827eab" />
        <path
            d="M.859,0A.859.859,0,0,0,0,.859V8.508a.859.859,0,0,0,1.719,0V.859A.859.859,0,0,0,.859,0Z"
            fill="#827eab" transform="translate(10.141 8.035)" />
    </g>
    <rect fill="none" height="24" width="24" />
</svg>