<svg data-name="Icons / bell-2" height="24" id="Icons_bell-2" viewBox="0 0 24 24" width="24"
    xmlns="http://www.w3.org/2000/svg">
    <path
        d="M6.685,18.259q1.087.082,2.315.084t2.315-.084a2.41,2.41,0,0,1-4.63,0Zm1.729-.669c-.385-.006-.764-.019-1.128-.038l-.541-.033-.525-.042-.139-.014-.117-.012-.5-.057-.482-.067C1.769,16.845,0,15.732,0,14.193a2.85,2.85,0,0,1,.743-1.852c.014-.018.029-.035.042-.053l.034-.041.174-.2.34-.386.241-.283a3.107,3.107,0,0,0,.859-2.162V6.723A6.654,6.654,0,0,1,9,0a6.654,6.654,0,0,1,6.567,6.723V9.212a3.239,3.239,0,0,0,.994,2.322l.538.614.158.193A2.85,2.85,0,0,1,18,14.193c0,1.539-1.769,2.652-4.983,3.136l-.482.067-.5.057-.115.012-.141.014-.525.042-.541.033c-.364.019-.743.031-1.128.038L9,17.6ZM4.217,6.723V9.212a4.97,4.97,0,0,1-1.44,3.53l-.538.617-.112.134a1.194,1.194,0,0,0-.342.7c0,.229.352.489.991.731l.254.09.279.088.305.085.33.081.109.025.066.014.365.075.192.036.4.068.422.062.443.055.229.025.473.045.492.037.511.029.529.02.546.01.279,0,.279,0,.546-.01.529-.02.511-.029.492-.037.239-.022.464-.049.443-.055.422-.062.4-.068c.131-.023.258-.049.377-.073l.355-.077.33-.081.305-.085.279-.088.254-.09c.639-.242.991-.5.991-.731a1.194,1.194,0,0,0-.342-.7l-.03-.036-.787-.911a4.865,4.865,0,0,1-1.274-3.335V6.723A4.847,4.847,0,0,0,9,1.826,4.847,4.847,0,0,0,4.217,6.723Z"
        data-name="Combined Shape" fill="#b0b3c7" id="Combined_Shape" transform="translate(3 2)" />
</svg>
