<svg height="24" id="bookmark" viewBox="0 0 24 24" width="24" xmlns="http://www.w3.org/2000/svg">
    <path
        d="M19.323,20.276l-3-2.362H7.745a2.815,2.815,0,0,1-2.69-2.669V14.62a.756.756,0,0,1,.737-.656.742.742,0,0,1,.723.656v.625a1.254,1.254,0,0,0,1.258,1.249h8.8a.636.636,0,0,1,.392.137l2.123,1.688V7.745a1.256,1.256,0,0,0-1.258-1.25.743.743,0,0,1-.624-.752.626.626,0,0,1,.624-.629A2.613,2.613,0,0,1,20.5,7.745l0,12.043a.624.624,0,0,1-.356.563,1.5,1.5,0,0,1-.426.062A.64.64,0,0,1,19.323,20.276ZM.372,15.85l-.078-.039A.49.49,0,0,1,0,15.3V2.8A2.946,2.946,0,0,1,.663.883,2.629,2.629,0,0,1,2.741,0H14.06A2.5,2.5,0,0,1,16.1.856a2.962,2.962,0,0,1,.609,1.889v7.5a2.563,2.563,0,0,1-2.665,2.683H4.975L1.366,15.811a1.63,1.63,0,0,1-.673.167A1.106,1.106,0,0,1,.372,15.85Zm1.111-13.1V13.911L4.225,11.64a.631.631,0,0,1,.4-.145H14.06a1.255,1.255,0,0,0,1.258-1.25v-7.5a1.255,1.255,0,0,0-1.258-1.25H2.741A1.255,1.255,0,0,0,1.483,2.745Zm3.144,5a.625.625,0,1,1,0-1.25H9.658a.625.625,0,1,1,0,1.25Zm0-2.5A.625.625,0,1,1,4.627,4h7.546a.625.625,0,1,1,0,1.249Z"
        data-name="Combined Shape" fill="#b0b3c7" id="Combined_Shape"
        transform="translate(1.786 1.755)" />
</svg>
