<svg height="25" viewBox="0 0 25 25" width="25" xmlns="http://www.w3.org/2000/svg">
    <g transform="translate(1 1)">
        <path
            d="M1216.635,817.723h1.786a.885.885,0,0,1,.9.859v8.078a.886.886,0,0,1-.9.86h-1.807a3.532,3.532,0,0,1-3.614-3.438V821.16a3.409,3.409,0,0,1,1.807-2.976,8.991,8.991,0,0,1,2.858-6.466,10.123,10.123,0,0,1,12.523-1.014,9.319,9.319,0,0,1,3.52,4.357.857.857,0,0,1-.536,1.1.907.907,0,0,1-1.156-.507,7.987,7.987,0,0,0-7.459-4.939A7.807,7.807,0,0,0,1216.635,817.723Zm-.021,8.078h.9v-6.36h-.9a1.766,1.766,0,0,0-1.807,1.719v2.922A1.766,1.766,0,0,0,1216.614,825.8Z"
            fill="#747f9e" fill-rule="evenodd" transform="translate(-1213 -809)" />
        <path
            d="M1229.84,817.723h1.72a3.44,3.44,0,0,1,3.44,3.437v2.922a3.441,3.441,0,0,1-3.44,3.438h-.86v.042a2.578,2.578,0,0,1-2.58,2.579h-2.62v-.028a1.719,1.719,0,1,1,0-1.664v-.027h2.62a.857.857,0,0,0,.86-.86v-8.98A.862.862,0,0,1,1229.84,817.723Zm1.72,8.078a1.72,1.72,0,0,0,1.72-1.719V821.16a1.72,1.72,0,0,0-1.72-1.719h-.86v6.36Z"
            fill="#747f9e" fill-rule="evenodd" transform="translate(-1212 -808)" />
    </g>
    <rect fill="none" height="25" width="25" />
</svg>