<svg data-name="Icons / edit" height="18" id="Icons_edit" viewBox="0 0 18 18" width="18"
    xmlns="http://www.w3.org/2000/svg">
    <path
        d="M480.063,925.937a3.2,3.2,0,0,0-4.527,0l-8.947,8.947a.621.621,0,0,0-.16.274l-1.406,5.049a.625.625,0,0,0,.773.769l5.049-1.434a.625.625,0,0,0,.272-1.042l-3.183-3.193,7.417-7.416,2.758,2.758-5.677,5.662a.625.625,0,1,0,.882.885l6.75-6.731a3.2,3.2,0,0,0,0-4.527ZM469.481,938.63l-2.955.839.828-2.973Zm9.512-8.863.186-.186a1.951,1.951,0,0,0-2.76-2.758l-.185.185Z"
        data-name="Path 225" fill="#ff6f5b" fill-rule="evenodd" id="Path_225"
        transform="translate(-464 -924)" />
    <rect data-name="Rectangle 12" fill="none" height="18" id="Rectangle_12" width="18" />
</svg>
