<svg height="24" id="single-04" viewBox="0 0 24 24" width="24" xmlns="http://www.w3.org/2000/svg">
    <path
        d="M2.385,20A2.378,2.378,0,0,1,.051,17.138,10.188,10.188,0,0,1,6.864,9.567a5.325,5.325,0,1,1,8.543-4.254,5.264,5.264,0,0,1-2.143,4.251,10.314,10.314,0,0,1,1.183.472.778.778,0,0,1,.372,1.04.792.792,0,0,1-.712.446.776.776,0,0,1-.336-.076,8.612,8.612,0,0,0-3.5-.826c-.08,0-.146,0-.21,0s-.131,0-.208,0A8.728,8.728,0,0,0,4.53,12.614a8.6,8.6,0,0,0-2.94,4.842.813.813,0,0,0,.167.684.8.8,0,0,0,.628.3h9.681a.781.781,0,1,1,0,1.562ZM10.248,9.058a3.771,3.771,0,1,0-.377,0l.19,0ZM13.431,16A3.672,3.672,0,1,1,17.1,19.65,3.666,3.666,0,0,1,13.431,16Zm1.308,0A2.365,2.365,0,1,0,17.1,13.649,2.36,2.36,0,0,0,14.739,16Z"
        data-name="Combined Shape" fill="#b0b3c7" id="Combined_Shape"
        transform="translate(2.012 2)" />
</svg>
