<svg height="32" viewBox="0 0 32 32" width="32" xmlns="http://www.w3.org/2000/svg">
    <g transform="translate(1.333 1.333)">
        <path
            d="M14.66,29.1a14.7,14.7,0,0,1-6.59-1.566L1.8,28.961A1.146,1.146,0,0,1,.428,27.6l1.358-6.174A14.478,14.478,0,0,1,0,14.568v-.024A14.387,14.387,0,0,1,4.318,4.26,14.675,14.675,0,0,1,25,4.264,14.382,14.382,0,0,1,26.81,22.69a1.146,1.146,0,0,1-1.891-1.295A12.088,12.088,0,0,0,23.382,5.887a12.371,12.371,0,0,0-21.09,8.636v.022a12.249,12.249,0,0,0,1.7,6.124,1.15,1.15,0,0,1,.128.822L3.054,26.326l4.919-1.118a1.14,1.14,0,0,1,.8.11,12.378,12.378,0,0,0,5.888,1.492h0a12.388,12.388,0,0,0,6.346-1.747,1.146,1.146,0,0,1,1.174,1.969,14.7,14.7,0,0,1-7.519,2.07Zm.4-9.253c-3.41-1.34-5.563-4.825-5.731-5.047a6.49,6.49,0,0,1-1.37-3.458A3.745,3.745,0,0,1,9.138,8.554a1.232,1.232,0,0,1,.894-.418h.643c.239.01.5.028.755.584.3.661.942,2.315,1.026,2.483a.614.614,0,0,1,.029.586,2.249,2.249,0,0,1-.328.557c-.168.2-.372.4-.522.55-.168.167-.343.348-.148.683a10.284,10.284,0,0,0,1.885,2.352A9.272,9.272,0,0,0,16.06,17.6c.336.167.532.139.727-.084s.854-1,1.078-1.331.448-.28.755-.168,1.952.935,2.288,1.1.559.251.642.39a2.784,2.784,0,0,1-.2,1.59,3.386,3.386,0,0,1-2.264,1.59,6.407,6.407,0,0,1-.685.055A9.607,9.607,0,0,1,15.065,19.848Z"
            fill="#67b93e" transform="translate(0 0)" />
    </g>
    <rect fill="none" height="32" width="32" />
</svg>