<svg height="22" viewBox="0 0 22 22" width="22" xmlns="http://www.w3.org/2000/svg">
    <path
        d="M16.692,20.415a.859.859,0,1,0-.89-1.47A9.282,9.282,0,1,1,11,1.719a9.407,9.407,0,0,1,8.4,5.328A8.892,8.892,0,0,1,20.281,11a9.244,9.244,0,0,1-1.574,5.151.859.859,0,1,0,1.429.955A10.994,10.994,0,0,0,3.222,3.222a11,11,0,0,0,13.47,17.193Z"
        fill="#e6ecf4" />
    <path d="M.859,1.719A.859.859,0,1,1,1.719.859.859.859,0,0,1,.859,1.719Z" fill="#fce87c"
        transform="translate(10.098 15.512)" />
    <path
        d="M4.469,8.207V7.053A3.581,3.581,0,0,0,7.216,3.439,3.621,3.621,0,0,0,1.089,1.011,3.519,3.519,0,0,0,0,3.566a.859.859,0,0,0,1.719,0,1.814,1.814,0,0,1,.562-1.317,1.9,1.9,0,0,1,1.4-.529,1.856,1.856,0,0,1,.34,3.672A1.607,1.607,0,0,0,2.75,6.969V8.207a.859.859,0,0,0,1.719,0Z"
        fill="#fce87c" transform="translate(7.348 5.156)" />
</svg>