<svg height="20" viewBox="0 0 20 20" width="20" xmlns="http://www.w3.org/2000/svg">
    <g transform="translate(0.833 1.667)">
        <path
            d="M978.617,820.814a.716.716,0,0,0,.716-.717v-4.655a2.868,2.868,0,0,0-2.865-2.864h-1.087a.717.717,0,0,1-.678-.486l-.217-.637A2.147,2.147,0,0,0,972.453,810h-4.575a2.154,2.154,0,0,0-2.021,1.418l-.248.687a.717.717,0,0,1-.673.473h-1.071A2.868,2.868,0,0,0,961,815.443v8.236a2.868,2.868,0,0,0,2.865,2.865h12.6a2.868,2.868,0,0,0,2.865-2.865.716.716,0,0,0-1.432,0,1.434,1.434,0,0,1-1.432,1.432h-12.6a1.434,1.434,0,0,1-1.432-1.432v-8.236a1.435,1.435,0,0,1,1.432-1.432h1.071a2.154,2.154,0,0,0,2.021-1.418l.247-.687a.719.719,0,0,1,.674-.472h4.575a.715.715,0,0,1,.677.485l.217.637a2.148,2.148,0,0,0,2.034,1.456h1.087a1.434,1.434,0,0,1,1.432,1.432V820.1A.717.717,0,0,0,978.617,820.814Z"
            fill="#fce87c" transform="translate(-961 -810)" />
        <path
            d="M966.672,820.148a4.476,4.476,0,1,1,4.476,4.476A4.48,4.48,0,0,1,966.672,820.148Zm1.432,0a3.043,3.043,0,1,0,3.043-3.043A3.047,3.047,0,0,0,968.1,820.148Z"
            fill="#fce87c" fill-rule="evenodd" transform="translate(-961.945 -810.945)" />
    </g>
    <rect fill="none" height="20" width="20" />
</svg>