<svg height="24" viewBox="0 0 24 24" width="24" xmlns="http://www.w3.org/2000/svg">
    <path
        d="M976.172,938.859a2.816,2.816,0,0,1,2.812-2.812h3.141v-2.672a1.877,1.877,0,0,0-1.875-1.875H962.812a2.8,2.8,0,0,1-.937-.161V944.25a1.877,1.877,0,0,0,1.875,1.875h16.5a1.872,1.872,0,0,0,1.779-1.281.938.938,0,1,1,1.779.593A3.745,3.745,0,0,1,980.25,948h-16.5a3.754,3.754,0,0,1-3.75-3.75v-15.8a.927.927,0,0,1,.076-.37,2.818,2.818,0,0,1,2.736-2.161h1.735a.938.938,0,0,1,0,1.875h-1.735a.914.914,0,1,0,0,1.828h1.412l9.031-5.489a.937.937,0,0,1,1.294.325l1.061,1.795,2.352-1.459a.937.937,0,0,1,1.294.309l3.19,5.232A3.746,3.746,0,0,1,984,933.375v7.359a.938.938,0,0,1-.938.938h-4.078A2.816,2.816,0,0,1,976.172,938.859Zm2.812.938h3.141v-1.875h-3.141a.938.938,0,0,0,0,1.875Zm-11.15-10.172,5.584-3.393,1,1.689a.868.868,0,0,0,.069.136,1.041,1.041,0,0,0,.066.093l.872,1.475Zm8.73-1.755,1.037,1.755h2.214l-1.668-2.737Z"
        fill="#827eab" fill-rule="evenodd" transform="translate(-960 -924)" />
</svg>