<svg height="40" viewBox="0 0 40 40" width="40" xmlns="http://www.w3.org/2000/svg">
    <rect fill="#fff" height="40" rx="10" width="40" />
    <g transform="translate(10 10)">
        <g transform="translate(0.833 0.833)">
            <path
                d="M2.722,3.232A3.087,3.087,0,0,1,2.8,2.551L.4,1.358A.716.716,0,0,1,1.035.075l2.4,1.192a3.079,3.079,0,1,1-.71,1.965Z"
                fill="#2c5981" transform="translate(9.453 12.022)" />
            <path
                d="M12.441,14.636c-.109,0-5.751-2.84-5.855-2.893L5.43,11.155a3.079,3.079,0,1,1,.007-3.967L12.253,3.77a3.086,3.086,0,1,1,.638,1.282L6.079,8.468a3.086,3.086,0,0,1,0,1.408l7.921,4c.353.18,2.216,1.495,2.037,1.847-.011.021-.044.031-.1.031C15.381,15.75,12.679,14.636,12.441,14.636Z"
                fill="#2c5981" />
        </g>
        <rect fill="none" height="20" width="20" />
    </g>
</svg>