<svg data-name="Icons / pay" height="24" id="Icons_pay" viewBox="0 0 24 24" width="24"
    xmlns="http://www.w3.org/2000/svg">
    <path
        d="M735,447.427a.859.859,0,0,1-1.719,0v-2.148H714.719v6.44a1.721,1.721,0,0,0,1.719,1.719h15.124a1.721,1.721,0,0,0,1.719-1.719.859.859,0,1,1,1.719,0,3.441,3.441,0,0,1-3.438,3.437H716.438A3.441,3.441,0,0,1,713,451.719v-9.281A3.442,3.442,0,0,1,716.438,439h15.124A3.442,3.442,0,0,1,735,442.438Zm-20.281-4.989v1.122h18.562v-1.122a1.721,1.721,0,0,0-1.719-1.719H716.438A1.721,1.721,0,0,0,714.719,442.438Z"
        data-name="Path 186" fill="#35ae35" fill-rule="evenodd" id="Path_186"
        transform="translate(-712 -435)" />
    <rect data-name="Rectangle 22" fill="none" height="24" id="Rectangle_22" width="24" />
</svg>
