<svg data-name="Icons / search" height="20" id="Icons_search" viewBox="0 0 20 20" width="20"
    xmlns="http://www.w3.org/2000/svg">
    <rect fill="none" height="20" id="Rectangle" width="20" />
    <g id="search" transform="translate(0.833 0.833)">
        <path
            d="M7.5,15a7.509,7.509,0,1,1,5.3-2.2A7.508,7.508,0,0,1,7.5,15Zm0-13.334A5.833,5.833,0,1,0,13.333,7.5,5.84,5.84,0,0,0,7.5,1.666Z"
            fill="#7065e4" id="Shape" />
        <path d="M1.667,4.167H0A4.172,4.172,0,0,1,4.167,0V1.667a2.5,2.5,0,0,0-2.5,2.5Z"
            fill="#7065e4" id="Path" transform="translate(3.333 3.333)" />
        <path
            d="M4.725,3.547,1.178,0A9.152,9.152,0,0,1,0,1.178L3.547,4.725A.833.833,0,0,0,4.725,3.547Z"
            data-name="Path" fill="#7065e4" id="Path-2" transform="translate(13.364 13.364)" />
    </g>
</svg>
