<svg height="24" viewBox="0 0 24 24" width="24" xmlns="http://www.w3.org/2000/svg">
    <g transform="translate(1 1)">
        <path d="M.353,1.551A.858.858,0,1,0,.164.353.852.852,0,0,0,.353,1.551Z" fill="#747f9e"
            transform="translate(1.933 4.192)" />
        <path d="M.593,1.673A.858.858,0,1,0,.042.593.851.851,0,0,0,.593,1.673Z" fill="#747f9e"
            transform="translate(0.493 7.011)" />
        <path d="M.858,1.715a.857.857,0,0,0,.5-.164h0a.857.857,0,1,0-.5.164Z" fill="#747f9e"
            transform="translate(4.172 1.953)" />
        <path
            d="M.017,1.025c.006.027.012.054.021.081s.018.053.028.079A.834.834,0,0,0,.1,1.261a.816.816,0,0,0,.043.072.708.708,0,0,0,.05.068.837.837,0,0,0,.119.119.8.8,0,0,0,.068.05A.894.894,0,0,0,.53,1.65c.026.011.052.02.079.028s.054.015.081.021a.782.782,0,0,0,.083.012.833.833,0,0,0,.169,0A.8.8,0,0,0,1.025,1.7c.027-.006.054-.012.081-.021s.053-.018.079-.028a.828.828,0,0,0,.076-.036.758.758,0,0,0,.072-.043.789.789,0,0,0,.068-.05A.837.837,0,0,0,1.521,1.4a.8.8,0,0,0,.05-.068.894.894,0,0,0,.079-.148c.011-.026.02-.052.028-.079s.015-.054.021-.081A.768.768,0,0,0,1.711.942a.833.833,0,0,0,0-.169A.8.8,0,0,0,1.7.69C1.693.663,1.686.635,1.678.608S1.66.555,1.65.53A.834.834,0,0,0,1.614.454.816.816,0,0,0,1.571.382a.789.789,0,0,0-.05-.068A.837.837,0,0,0,1.4.195a.715.715,0,0,0-.068-.05A.758.758,0,0,0,1.262.1.817.817,0,0,0,1.186.066C1.16.055,1.133.045,1.107.037S1.053.022,1.025.017A.782.782,0,0,0,.942,0,.854.854,0,0,0,.773,0,.8.8,0,0,0,.69.017C.663.022.636.029.609.037S.555.055.53.066A.828.828,0,0,0,.454.1.816.816,0,0,0,.382.144a.708.708,0,0,0-.068.05A.837.837,0,0,0,.195.314a.715.715,0,0,0-.05.068A.894.894,0,0,0,.066.53C.055.555.045.582.037.608S.022.663.017.69A.782.782,0,0,0,0,.773.833.833,0,0,0,0,.942.789.789,0,0,0,.017,1.025Z"
            fill="#747f9e" transform="translate(0 10.142)" />
        <path d="M.858,1.716a.858.858,0,1,0-.816-.593A.851.851,0,0,0,.858,1.716Z" fill="#747f9e"
            transform="translate(6.992 0.514)" />
        <path
            d="M.3,4.848v.159A3.007,3.007,0,0,0,3.295,8.019h1.08A1.285,1.285,0,0,1,5.661,9.3v.56A1.289,1.289,0,0,1,4.375,11.15H2.619a.937.937,0,0,1-.9-.943.858.858,0,1,0-1.715,0,2.642,2.642,0,0,0,2.619,2.659H2.83v.9a.858.858,0,1,0,1.715,0V12.86a3.007,3.007,0,0,0,2.83-3V9.3a3,3,0,0,0-3-3H3.295a1.289,1.289,0,0,1-1.279-1.3V4.848A1.286,1.286,0,0,1,3.295,3.559H4.316a.909.909,0,0,1,.916.9.858.858,0,0,0,1.715,0,2.625,2.625,0,0,0-2.4-2.605v-1a.858.858,0,0,0-1.715,0V1.88A3.006,3.006,0,0,0,.3,4.848Z"
            fill="#747f9e" transform="translate(7.29 3.71)" />
        <path d="M1.123.042a.858.858,0,1,0,.551,1.081A.858.858,0,0,0,1.123.042Z" fill="#747f9e"
            transform="translate(19.791 13.273)" />
        <path
            d="M11.875,6.95l0-.014c0-.022-.006-.044-.01-.066a.851.851,0,0,0-.1-.265l-.024-.039-.017-.025c-.011-.016-.023-.031-.035-.046l-.013-.016c-.014-.016-.028-.032-.043-.048l-.01-.01c-.015-.015-.031-.029-.048-.043l-.017-.014-.046-.034-.024-.016-.039-.024a.85.85,0,0,0-.264-.1l-.067-.01a.861.861,0,0,0-.1-.006A9.31,9.31,0,0,1,3.1,1.718l1.961,0A.858.858,0,0,0,5.06,0h0L2.55,0H2.542A2.513,2.513,0,0,0,.751.742,2.566,2.566,0,0,0,0,2.581V5.06a.858.858,0,1,0,1.715,0V2.74A11.006,11.006,0,0,0,5.054,6.129,10.939,10.939,0,0,0,11.02,7.891h0a.8.8,0,0,0,.084,0h.011c.023,0,.046-.006.069-.01a.85.85,0,0,0,.263-.1l.041-.025.023-.015L11.56,7.7l.015-.012c.017-.014.033-.029.049-.044l.009-.009c.015-.015.03-.032.044-.049l.013-.015c.012-.015.024-.031.035-.047L11.74,7.5c.009-.014.017-.028.025-.042a.851.851,0,0,0,.1-.263c0-.022.008-.044.01-.066l0-.014a.794.794,0,0,0,0-.082h0A.785.785,0,0,0,11.875,6.95Z"
            fill="#747f9e" transform="translate(0 14.088)" />
        <path
            d="M11.021,1.973a.858.858,0,0,0-.858.858v2.32A11.006,11.006,0,0,0,6.825,1.762,10.939,10.939,0,0,0,.858,0a.865.865,0,0,0-.1.006C.739.008.716.012.693.016a.851.851,0,0,0-.262.1L.389.14A.854.854,0,0,0,.3.2C.288.217.271.232.255.248L.248.255C.232.271.217.288.2.3L.191.319C.178.335.166.351.154.368L.14.389C.131.4.123.417.114.431a.852.852,0,0,0-.1.263c0,.022-.008.045-.01.067L0,.773A.789.789,0,0,0,0,.858.808.808,0,0,0,0,.942l0,.013c0,.022.006.045.01.066a.851.851,0,0,0,.1.263c.008.014.017.028.025.042l.014.021c.011.016.023.033.036.048L.2,1.411c.014.017.029.033.045.049l.008.008c.016.016.032.031.049.045l.014.012.048.036.022.015L.431,1.6a.851.851,0,0,0,.263.1c.022,0,.045.008.067.01l.013,0a.806.806,0,0,0,.084,0,9.31,9.31,0,0,1,7.92,4.457l-1.96,0a.858.858,0,0,0,0,1.715h0l2.509,0h.008a2.514,2.514,0,0,0,1.791-.738,2.566,2.566,0,0,0,.751-1.839V2.83A.858.858,0,0,0,11.021,1.973Z"
            fill="#747f9e" transform="translate(10.121 0.021)" />
        <path d="M1.362.164a.858.858,0,1,0,.189,1.2A.858.858,0,0,0,1.362.164Z" fill="#747f9e"
            transform="translate(18.352 16.093)" />
        <path
            d="M1.7.69C1.693.663,1.686.635,1.678.608S1.66.555,1.65.53A.834.834,0,0,0,1.614.454.758.758,0,0,0,1.571.382a.789.789,0,0,0-.05-.068A.837.837,0,0,0,1.4.195a.715.715,0,0,0-.068-.05A.894.894,0,0,0,1.186.066C1.16.055,1.133.045,1.107.037S1.052.022,1.025.017A.782.782,0,0,0,.942,0,.854.854,0,0,0,.773,0,.8.8,0,0,0,.69.017C.663.022.636.029.609.037S.555.055.53.066A.834.834,0,0,0,.454.1.816.816,0,0,0,.382.144a.708.708,0,0,0-.068.05A.837.837,0,0,0,.195.314a.8.8,0,0,0-.05.068A.758.758,0,0,0,.1.454.817.817,0,0,0,.066.53C.055.555.045.582.037.608S.022.663.017.69A.782.782,0,0,0,0,.773.833.833,0,0,0,0,.942a.8.8,0,0,0,.012.083c.006.027.012.054.021.081s.018.053.028.079A.834.834,0,0,0,.1,1.261a.816.816,0,0,0,.043.072.789.789,0,0,0,.05.068.837.837,0,0,0,.119.119.8.8,0,0,0,.068.05A.894.894,0,0,0,.53,1.65c.026.011.052.02.079.028s.054.015.081.021a.782.782,0,0,0,.083.012.833.833,0,0,0,.169,0A.8.8,0,0,0,1.025,1.7c.027-.006.054-.012.081-.021s.053-.018.079-.028a.834.834,0,0,0,.076-.036.816.816,0,0,0,.072-.043.789.789,0,0,0,.068-.05A.837.837,0,0,0,1.521,1.4a.8.8,0,0,0,.05-.068.894.894,0,0,0,.079-.148c.011-.026.02-.052.028-.079s.015-.054.021-.081A.782.782,0,0,0,1.711.942a.833.833,0,0,0,0-.169A.793.793,0,0,0,1.7.69Z"
            fill="#747f9e" transform="translate(20.285 10.142)" />
        <path d="M.353.164a.858.858,0,1,0,1.2.189A.857.857,0,0,0,.353.164Z" fill="#747f9e"
            transform="translate(16.112 18.331)" />
        <path d="M.593.042A.858.858,0,1,0,1.674.593.858.858,0,0,0,.593.042Z" fill="#747f9e"
            transform="translate(13.292 19.77)" />
    </g>
    <rect fill="none" height="24" width="24" />
</svg>