<svg data-name="Icons / user" height="16" id="Icons_user" viewBox="0 0 16 16" width="16"
    xmlns="http://www.w3.org/2000/svg">
    <g data-name="Group 11" id="Group_11" transform="translate(2 0.667)">
        <path
            d="M970.019,440.438a3.581,3.581,0,1,0,.982,7.025.573.573,0,0,0-.314-1.1,2.431,2.431,0,1,1,1.665-1.641.573.573,0,1,0,1.1.329,3.582,3.582,0,0,0-3.43-4.61Z"
            data-name="Path 177" fill="#2ad3e7" id="Path_177"
            transform="translate(-964.146 -438.146)" />
        <path
            d="M968.873,437a5.872,5.872,0,0,1,5.872,5.865,6.138,6.138,0,0,1-.969,3.276,17.474,17.474,0,0,1-2.072,2.571,19.541,19.541,0,0,0-2.175,2.687.574.574,0,0,1-.485.267H968.7a.574.574,0,0,1-.485-.267,19.545,19.545,0,0,0-2.175-2.687h0a17.467,17.467,0,0,1-2.072-2.571,6.136,6.136,0,0,1-.969-3.275A5.873,5.873,0,0,1,968.873,437Zm0,13.319a23.42,23.42,0,0,1,1.985-2.379h0c1.47-1.609,2.739-3,2.741-5.074a4.726,4.726,0,0,0-9.453,0c0,2.073,1.271,3.463,2.741,5.073h0A23.6,23.6,0,0,1,968.873,450.319Z"
            data-name="Path 178" fill="#2ad3e7" fill-rule="evenodd" id="Path_178"
            transform="translate(-963 -437)" />
    </g>
    <rect data-name="Rectangle 25" fill="none" height="16" id="Rectangle_25" width="16" />
</svg>
