<svg height="24" viewBox="0 0 24 24" width="24" xmlns="http://www.w3.org/2000/svg">
    <g transform="translate(3793 -7126)">
        <path
            d="M603.5,815.52a11.176,11.176,0,0,1,1.293.519.859.859,0,0,1-.738,1.552,9.369,9.369,0,0,0-3.826-.908c-.076,0-.153.005-.23.005s-.152,0-.228-.005a9.5,9.5,0,0,0-9.034,7.519.9.9,0,0,0,.182.752.876.876,0,0,0,.688.327h10.583a.859.859,0,1,1,0,1.719H591.608a2.61,2.61,0,0,1-2.552-3.149,11.175,11.175,0,0,1,7.448-8.327,5.844,5.844,0,1,1,7,0Zm-3.5-.558h.21a4.116,4.116,0,1,0-.418,0C599.861,814.962,599.931,814.962,600,814.962Z"
            fill="#747f9e" fill-rule="evenodd" transform="translate(-4381 6322)" />
        <path
            d="M610.141,822.059h-2.364V819.7a.859.859,0,1,0-1.718,0v2.364H603.7a.859.859,0,1,0,0,1.718h2.364v2.364a.859.859,0,1,0,1.718,0v-2.364h2.364a.859.859,0,1,0,0-1.718Z"
            fill="#747f9e" transform="translate(-4381 6322)" />
    </g>
    <rect fill="none" height="24" width="24" />
</svg>