<svg height="32" viewBox="0 0 32 32" width="32" xmlns="http://www.w3.org/2000/svg">
    <g transform="translate(1.333 1.333)">
        <path
            d="M481.834,449.454a4.9,4.9,0,1,1-1.015,2.055l-3.84-1.909A1.146,1.146,0,0,1,478,447.547Zm1.156,3.144a2.635,2.635,0,1,0,.343-1.3,1.106,1.106,0,0,1-.061.151,1.067,1.067,0,0,1-.077.132A2.634,2.634,0,0,0,482.99,452.6Z"
            fill="#8f8dab" fill-rule="evenodd" transform="translate(-461.219 -428.191)" />
        <path
            d="M489.407,433a4.928,4.928,0,0,0-4.8,6.032L473.7,444.5a4.926,4.926,0,1,0-.011,6.347l1.849.941a1.134,1.134,0,0,0,.519.125,1.146,1.146,0,0,0,.521-2.167l-1.855-.944a4.945,4.945,0,0,0,0-2.253l10.9-5.467A4.926,4.926,0,1,0,489.407,433Zm-19.48,17.3a2.636,2.636,0,1,1,2.636-2.636A2.638,2.638,0,0,1,469.927,450.3Zm16.844-12.376a2.635,2.635,0,1,0,2.636-2.635A2.639,2.639,0,0,0,486.771,437.927Z"
            fill="#8f8dab" fill-rule="evenodd" transform="translate(-465 -433)" />
    </g>
    <rect fill="none" height="32" width="32" />
</svg>