<svg xmlns="http://www.w3.org/2000/svg" width="195.89" height="162.401"
    viewBox="0 0 195.89 162.401">
    <g transform="translate(-34.564 -35.664)">
        <path
            d="M120,55.094c-3.642.975-3.151.523-31.79,29.225-26.568,26.626-27.193,27.3-29.97,32.181a39.607,39.607,0,0,0,2.912,43.458c1.465,1.974,49.459,50.328,53.462,53.864,7.062,6.236,16.363,3.36,16.75-5.179.22-4.858,1.6-3.235-28.107-33.014-14.048-14.081-26.024-26.24-26.613-27.022-5.611-7.435-5.945-16.251-.912-24.065.512-.794,10.728-11.207,26.945-27.463,27.241-27.306,27.612-27.7,28.412-30.455A9.177,9.177,0,0,0,120,55.094"
            transform="translate(-18.522 -19.112)" fill="#fcdd33" fill-rule="evenodd" />
        <path
            d="M126.5,166.039c-9.918,1.315-11.567,13.625-2.3,17.127l1.364.515,68.193.064c46.017.044,68.7-.014,69.761-.176,10.74-1.645,10.884-15.74.178-17.448-1.439-.229-135.485-.31-137.2-.082"
            transform="translate(-41.199 -57.885)" fill="#0c3c5c" fill-rule="evenodd" />
    </g>
</svg>